<svg width="799" height="222" viewBox="0 0 799 222" fill="none" xmlns="http://www.w3.org/2000/svg">
<path d="M76.514 9.01855V33.0185C62.014 22.5186 44.514 22.5186 44.514 22.5186C27.514 23.0186 26.514 35.5186 26.514 35.5186C26.514 45.5186 42.014 49.0186 42.014 49.0186C53.014 52.0186 62.514 56.0186 62.514 56.0186C81.514 63.0186 83.514 85.0186 83.514 85.0186V91.0186C79.014 126.519 38.014 125.019 38.014 125.019C11.514 124.019 1.51405 116.019 1.51405 116.019L1.75858 91.1836C15.6881 100.536 30.514 102.019 30.514 102.019C44.514 103.019 47.514 101.519 47.514 101.519C58.514 97.5186 57.514 88.0186 57.514 88.0186C56.514 82.5186 51.514 79.0186 51.514 79.0186C47.514 75.0186 26.514 69.0186 26.514 69.0186C-1.48596 61.5186 0.0140481 35.5186 0.0140481 35.5186C2.01404 -1.98144 44.514 0.0185808 44.514 0.0185808C68.514 1.51858 76.514 9.01855 76.514 9.01855Z" fill="#42337E"/>
<path d="M196 102.083V125H114V0H193.988V22.9167H139.656V51.0417H188.454V72.9167H139.656V102.083H196Z" fill="#42337E"/>
<path d="M228.5 0L226 125H251L253 42.3554L285.5 101.756H295.5L327 42.3554L329 125H356L352 0H322L290.5 65.5992L258 0H228.5Z" fill="#42337E"/>
<path d="M412 125H386V0H412V125Z" fill="#42337E"/>
<path d="M551 88.6467V114.54C536.936 125.494 510.316 124.997 510.316 124.997C439.997 123.503 442.006 62.7535 442.006 62.7535C444.517 -2.47719 510.818 0.012523 510.818 0.012523C534.927 0.012523 551 9.97141 551 9.97141V37.8563C536.936 22.918 512.827 22.918 512.827 22.918C468.124 23.9138 469.631 62.7536 469.631 62.7536C470.636 104.083 513.329 102.589 513.329 102.589C537.439 102.589 551 88.6467 551 88.6467Z" fill="#42337E"/>
<path d="M663 102.083V125H581V0H660.988V22.9167H606.656V51.0417H655.454V72.9167H606.656V102.083H663Z" fill="#42337E"/>
<path d="M693 0V125H719.123V81.095L727.664 73.3471L767.351 125H799L746.251 56.8182L795.483 0H764.336L719.123 52.6859V0H693Z" fill="#42337E"/>
<path d="M76 222H65V171H76V222Z" fill="#42337E"/>
<path d="M100 171V222H110V188L134 222H144V171H133V201L111 171H100Z" fill="#42337E"/>
<path d="M168 171V222H178V188L202 222H212V171H201V201L179 171H168Z" fill="#42337E"/>
<path fill-rule="evenodd" clip-rule="evenodd" d="M261.5 171C275.583 171 287 182.417 287 196.5C287 210.583 275.583 222 261.5 222C247.417 222 236 210.583 236 196.5C236 182.417 247.417 171 261.5 171ZM261.972 181.389C253.366 181.389 246.389 188.366 246.389 196.972C246.389 205.579 253.366 212.556 261.972 212.556C270.579 212.556 277.556 205.579 277.556 196.972C277.556 188.366 270.579 181.389 261.972 181.389Z" fill="#42337E"/>
<path d="M331 222L311 171H323L336.5 206L349 171H360.5L341 222H331Z" fill="#42337E"/>
<path fill-rule="evenodd" clip-rule="evenodd" d="M435 222H424L419 210H399L395 222H384L403 171H416L435 222ZM402.5 201H416L409.5 183L402.5 201Z" fill="#42337E"/>
<path d="M473 181V222H484V181H498V171H459V181H473Z" fill="#42337E"/>
<path d="M533 222H522V171H533V222Z" fill="#42337E"/>
<path fill-rule="evenodd" clip-rule="evenodd" d="M582.5 171C596.583 171 608 182.417 608 196.5C608 210.583 596.583 222 582.5 222C568.417 222 557 210.583 557 196.5C557 182.417 568.417 171 582.5 171ZM582.972 181.389C574.366 181.389 567.389 188.366 567.389 196.972C567.389 205.579 574.366 212.556 582.972 212.556C591.579 212.556 598.556 205.579 598.556 196.972C598.556 188.366 591.579 181.389 582.972 181.389Z" fill="#42337E"/>
<path d="M632 171V222H642V188L666 222H676V171H665V201L643 171H632Z" fill="#42337E"/>
<path d="M731.15 174.679V184.469C725.247 180.186 718.122 180.186 718.122 180.186C711.201 180.389 710.794 185.488 710.794 185.488C710.794 189.567 717.105 190.995 717.105 190.995C721.583 192.219 725.451 193.851 725.451 193.851C733.186 196.706 734 205.68 734 205.68V208.127C732.168 222.608 715.476 221.996 715.476 221.996C704.688 221.588 700.616 218.325 700.616 218.325L700.716 208.195C706.387 212.01 712.423 212.614 712.423 212.614C718.122 213.022 719.344 212.41 719.344 212.41C723.822 210.779 723.415 206.904 723.415 206.904C723.008 204.66 720.972 203.232 720.972 203.232C719.344 201.601 710.794 199.153 710.794 199.153C699.395 196.094 700.006 185.488 700.006 185.488C700.82 170.192 718.122 171.008 718.122 171.008C727.893 171.619 731.15 174.679 731.15 174.679Z" fill="#42337E"/>
</svg>
